<?xml version="1.0" ?><svg viewBox="0 0 64 64" xmlns="http://www.w3.org/2000/svg"><g data-name="13-fox" id="_13-fox"><polygon points="41 48 41 56 38 56 35 56 35 48 41 48" style="fill:#008f57"/><path d="M47.02,46.62c-.06.07-.12.14-.19.21A4.025,4.025,0,0,1,44,48H20a4.023,4.023,0,0,1-4-4,3.995,3.995,0,0,1,4-4H44a4,4,0,0,1,4,4A4.348,4.348,0,0,1,47.02,46.62Z" style="fill:#009e60"/><ellipse cx="24" cy="27" rx="1" ry="3" style="fill:#995e26"/><ellipse cx="40" cy="27" rx="1" ry="3" style="fill:#995e26"/><path d="M34,35l-1.17,1.59a1.041,1.041,0,0,1-1.66,0L30,35Z" style="fill:#d9541e"/><path d="M45,7s1.87,4.69,1.08,8.61A5.928,5.928,0,0,0,42,14H40Z" style="fill:#f2c373"/><path d="M19,7l5,7H22a5.928,5.928,0,0,0-4.08,1.61C17.13,11.69,19,7,19,7Z" style="fill:#f2c373"/><path d="M18,58a4.135,4.135,0,0,1-3.94-4H20v3a5.361,5.361,0,0,0,.09.99L20,58Z" style="fill:#f5f9ff"/><path d="M46,58H44l-.09-.01A5.361,5.361,0,0,0,44,57V54h5.94A4.135,4.135,0,0,1,46,58Z" style="fill:#f5f9ff"/><path d="M62,43s-2,2-2,4a14.112,14.112,0,0,1-.31,2.99c-5.01-.1-6.59-2.78-9.26-6.41C51.79,41.73,53.68,40,56,40,59.32,40,62,41.34,62,43Z" style="fill:#f5f9ff"/><path d="M31.17,36.59a1.041,1.041,0,0,0,1.66,0L34,35c6.76-2.9,8.59-3,16.17-3,.72,1.62,1.43,3.21,1.83,4,0,0-2,4-12,4H24c-10,0-12-4-12-4,.36-1.08.98-2.56,1.64-4,7.74,0,9.54.08,16.36,3Z" style="fill:#f5f9ff"/><path d="M16.57,17.45A9.346,9.346,0,0,1,15,12c0-4,4-11,4-11l9,13H24L19,7s-1.87,4.69-1.08,8.61A6,6,0,0,0,16.57,17.45Z" style="fill:#fd853c"/><path d="M49,12a9.346,9.346,0,0,1-1.57,5.45,6,6,0,0,0-1.35-1.84C46.87,11.69,45,7,45,7l-5,7H36L45,1S49,8,49,12Z" style="fill:#fd853c"/><path d="M40,30c.55,0,1-1.34,1-3s-.45-3-1-3-1,1.34-1,3S39.45,30,40,30Zm7.43-12.55A5.883,5.883,0,0,1,48,20v7s1.09,2.54,2.17,5c-7.58,0-9.41.1-16.17,3H30c-6.82-2.92-8.62-3-16.36-3C14.78,29.45,16,27,16,27V20a5.883,5.883,0,0,1,.57-2.55,6,6,0,0,1,1.35-1.84A5.928,5.928,0,0,1,22,14H42a5.928,5.928,0,0,1,4.08,1.61A6,6,0,0,1,47.43,17.45ZM25,27c0-1.66-.45-3-1-3s-1,1.34-1,3,.45,3,1,3S25,28.66,25,27Z" style="fill:#fd853c"/><path d="M44,54v3a5.361,5.361,0,0,1-.09.99A6,6,0,0,1,38,63H26a6,6,0,0,1-5.91-5.01A5.361,5.361,0,0,1,20,57V48H35v8h6V48h3Z" style="fill:#fd853c"/><path d="M20,48v6H14.06A7.792,7.792,0,0,1,14,53a9.093,9.093,0,0,1,2.99-6.38A3.923,3.923,0,0,0,20,48Z" style="fill:#fd853c"/><path d="M48.08,47.8A8.509,8.509,0,0,1,50,53a7.792,7.792,0,0,1-.06,1H44V48a4.025,4.025,0,0,0,2.83-1.17c.07-.07.13-.14.19-.21A12.547,12.547,0,0,1,48.08,47.8Z" style="fill:#fd853c"/><path d="M49.94,54A7.792,7.792,0,0,0,50,53a8.509,8.509,0,0,0-1.92-5.2,20.109,20.109,0,0,1,2.35-4.22c2.67,3.63,4.25,6.31,9.26,6.41A14.741,14.741,0,0,1,46.02,61.74l-4.68.24a5.949,5.949,0,0,0,2.57-3.99L44,58h2A4.135,4.135,0,0,0,49.94,54Z" style="fill:#e6642f"/><path d="M47.02,43.62c-.06.07-.12.14-.19.21A4.025,4.025,0,0,1,44,45H20a3.923,3.923,0,0,1-3.01-1.38A4.043,4.043,0,0,1,16.3,42.5a3.949,3.949,0,0,0,.69,4.125A3.923,3.923,0,0,0,20,48H44a4.025,4.025,0,0,0,2.83-1.17c.07-.07.13-.14.19-.21A4.348,4.348,0,0,0,48,44a3.988,3.988,0,0,0-.316-1.56A6.461,6.461,0,0,1,47.02,43.62Z" style="fill:#007145"/><path d="M39.833,38h-16c-7.434,0-10.443-2.209-11.5-3.343-.191.483-.367.946-.5,1.343,0,0,2,4,12,4h16c10,0,12-4,12-4-.156-.309-.361-.742-.594-1.249C50.109,35.909,47.073,38,39.833,38Z" style="fill:#ccf"/><path d="M41,48H35v8h3V54a3,3,0,0,1,3-3h0Z" style="fill:#00613b"/><path d="M24.1,10.8,19,4a15.842,15.842,0,0,0-3.143,9.69,2.051,2.051,0,0,1-.425,1.344A8.286,8.286,0,0,0,16.57,17.45a6,6,0,0,1,1.35-1.84C17.13,11.69,19,7,19,7l5,7h4l-1.385-2H26.5A3,3,0,0,1,24.1,10.8Z" style="fill:#e6642f"/><path d="M45,4l-5.1,6.8A3,3,0,0,1,37.5,12h-.115L36,14h4l5-7s1.87,4.69,1.08,8.61a6,6,0,0,1,1.35,1.84,8.286,8.286,0,0,0,1.138-2.416,2.051,2.051,0,0,1-.425-1.344A15.842,15.842,0,0,0,45,4Z" style="fill:#e6642f"/><path d="M20,54H18a2,2,0,0,1-2,2H14.693A4.072,4.072,0,0,0,18,58h2l.09-.01A5.361,5.361,0,0,1,20,57Z" style="fill:#ccf"/><path d="M46,54H44v3a5.361,5.361,0,0,1-.09.99L44,58h2a4.072,4.072,0,0,0,3.307-2H48A2,2,0,0,1,46,54Z" style="fill:#ccf"/><path d="M18,54h2V48a3.923,3.923,0,0,1-3.01-1.38,11.292,11.292,0,0,0-1.825,2.319A5.318,5.318,0,0,0,18,50Z" style="fill:#e6642f"/><path d="M46,50a5.336,5.336,0,0,0,2.844-1.067A10.514,10.514,0,0,0,48.08,47.8a12.547,12.547,0,0,0-1.06-1.18c-.06.07-.12.14-.19.21A4.025,4.025,0,0,1,44,48v6h2Z" style="fill:#e6642f"/><path d="M56,47a7.869,7.869,0,0,1-.3,2.1,9.1,9.1,0,0,0,3.995.887A14.112,14.112,0,0,0,60,47c0-2,2-4,2-4S56,41,56,47Z" style="fill:#ccf"/><path d="M51.842,54.875a1.671,1.671,0,0,1-2.111.108A4.059,4.059,0,0,1,46,58H44l-.09-.01a5.949,5.949,0,0,1-2.57,3.99l4.68-.24A14.741,14.741,0,0,0,59.69,49.99,9.1,9.1,0,0,1,55.7,49.1,12.656,12.656,0,0,1,51.842,54.875Z" style="fill:#9c4d30"/><path d="M32,61c-6.633,0-12-2.684-12-6v2a6,6,0,0,0,6,6H38a6,6,0,0,0,6-6V55C44,58.316,38.633,61,32,61Z" style="fill:#e6642f"/><polygon points="32 58 40 58 40 56 38 56 35 56 35 48 20 48 20 51 32 51 32 58" style="fill:#d9541e"/><rect height="3" style="fill:#d9541e" width="3" x="41" y="48"/><path d="M48,27c0,1-.823,1.922-2.227,2.7C43.284,31.083,38.949,32,34,32H30c-4.861,0-9.136-.883-11.646-2.224C16.869,28.982,16,28.028,16,27c0,0-1.22,2.45-2.36,5,1.495,0,2.764,0,3.895.029C22.259,32.137,24.5,32.644,30,35h4c5.636-2.418,7.856-2.888,12.828-2.978C47.82,32,48.91,32,50.17,32,49.09,29.54,48,27,48,27Z" style="fill:#e6642f"/><path d="M34.083,41.694l-.513.167-.268-.268a.176.176,0,0,0-.3.123l0,.423-.462.3a.18.18,0,0,0,.077.325l.535.082.081.534a.179.179,0,0,0,.325.077l.3-.462.423,0a.175.175,0,0,0,.123-.3l-.267-.267.166-.513A.182.182,0,0,0,34.083,41.694Z" style="fill:#dbe0e9"/><path d="M36.833,52.5l-.254.5h-.392a.183.183,0,0,0-.132.312l.313.307-.114.563a.185.185,0,0,0,.294.181L37,54.031l.452.332a.185.185,0,0,0,.294-.181l-.114-.563.313-.307A.183.183,0,0,0,37.813,53h-.392l-.254-.5A.188.188,0,0,0,36.833,52.5Z" style="fill:#a4afe6"/><path d="M23.833,42.5l-.254.5h-.392a.183.183,0,0,0-.132.312l.313.307-.114.563a.185.185,0,0,0,.294.181L24,44.031l.452.332a.185.185,0,0,0,.294-.181l-.114-.563.313-.307A.183.183,0,0,0,24.813,43h-.392l-.254-.5A.188.188,0,0,0,23.833,42.5Z" style="fill:#dbe0e9"/><path d="M43.833,42.5l-.254.5h-.392a.183.183,0,0,0-.132.312l.313.307-.114.563a.185.185,0,0,0,.294.181L44,44.031l.452.332a.185.185,0,0,0,.294-.181l-.114-.563.313-.307A.183.183,0,0,0,44.813,43h-.392l-.254-.5A.188.188,0,0,0,43.833,42.5Z" style="fill:#dbe0e9"/><path d="M36.917,48.752,36.79,49h-.2a.091.091,0,0,0-.066.155l.156.153-.057.281a.093.093,0,0,0,.147.091L37,49.514l.225.166a.093.093,0,0,0,.147-.091l-.057-.281.156-.153A.091.091,0,0,0,37.405,49h-.2l-.127-.248A.093.093,0,0,0,36.917,48.752Z" style="fill:#a4afe6"/><path d="M36.347,44.459l.083.256-.133.134a.088.088,0,0,0,.061.151l.212,0,.152.231a.09.09,0,0,0,.163-.039l.04-.267.268-.041a.09.09,0,0,0,.038-.162L37,44.567l0-.211a.088.088,0,0,0-.151-.061l-.134.133-.256-.083A.091.091,0,0,0,36.347,44.459Z" style="fill:#b2bfd6"/><path d="M39.347,41.459l.083.256-.133.134a.088.088,0,0,0,.061.151l.212,0,.152.231a.09.09,0,0,0,.163-.039l.04-.267.268-.041a.09.09,0,0,0,.038-.162L40,41.567l0-.211a.088.088,0,0,0-.151-.061l-.134.133-.256-.083A.091.091,0,0,0,39.347,41.459Z" style="fill:#b2bfd6"/><path d="M39.347,52.459l.083.256-.133.134a.088.088,0,0,0,.061.151l.212,0,.152.231a.09.09,0,0,0,.163-.039l.04-.267.268-.041a.09.09,0,0,0,.038-.162L40,52.567l0-.211a.088.088,0,0,0-.151-.061l-.134.133-.256-.083A.091.091,0,0,0,39.347,52.459Z" style="fill:#b2bfd6"/><path d="M28.347,46.459l.083.256-.133.134a.088.088,0,0,0,.061.151l.212,0,.152.231a.09.09,0,0,0,.163-.039l.04-.267.268-.041a.09.09,0,0,0,.038-.162L29,46.567l0-.211a.088.088,0,0,0-.151-.061l-.134.133-.256-.083A.091.091,0,0,0,28.347,46.459Z" style="fill:#a4afe6"/><path d="M28.347,41.459l.083.256-.133.134a.088.088,0,0,0,.061.151l.212,0,.152.231a.09.09,0,0,0,.163-.039l.04-.267.268-.041a.09.09,0,0,0,.038-.162L29,41.567l0-.211a.088.088,0,0,0-.151-.061l-.134.133-.256-.083A.091.091,0,0,0,28.347,41.459Z" style="fill:#dbe0e9"/><path d="M21.347,45.459l.083.256-.133.134a.088.088,0,0,0,.061.151l.212,0,.152.231a.09.09,0,0,0,.163-.039l.04-.267.268-.041a.09.09,0,0,0,.038-.162L22,45.567l0-.211a.088.088,0,0,0-.151-.061l-.134.133-.256-.083A.091.091,0,0,0,21.347,45.459Z" style="fill:#a4afe6"/><path d="M19.347,41.459l.083.256-.133.134a.088.088,0,0,0,.061.151l.212,0,.152.231a.09.09,0,0,0,.163-.039l.04-.267.268-.041a.09.09,0,0,0,.038-.162L20,41.567l0-.211a.088.088,0,0,0-.151-.061l-.134.133-.256-.083A.091.091,0,0,0,19.347,41.459Z" style="fill:#b2bfd6"/><ellipse cx="42.582" cy="17.695" rx="1.642" ry="2.286" style="fill:#f6fafd" transform="translate(-0.034 35.308) rotate(-45.02)"/><ellipse cx="38.58" cy="17.708" rx="0.825" ry="1.148" style="fill:#f6fafd" transform="translate(-1.217 32.48) rotate(-45.02)"/><path d="M44,48v9a5.361,5.361,0,0,1-.09.99A6,6,0,0,1,38,63H26a6,6,0,0,1-5.91-5.01A5.361,5.361,0,0,1,20,57V48" style="fill:none;stroke:#000;stroke-linejoin:round;stroke-width:2px"/><ellipse cx="40" cy="27" rx="1" ry="3" style="fill:none;stroke:#000;stroke-linejoin:round;stroke-width:2px"/><ellipse cx="24" cy="27" rx="1" ry="3" style="fill:none;stroke:#000;stroke-linejoin:round;stroke-width:2px"/><path d="M17,46.61l-.01.01A9.093,9.093,0,0,0,14,53a7.792,7.792,0,0,0,.06,1A4.135,4.135,0,0,0,18,58h2" style="fill:none;stroke:#000;stroke-linejoin:round;stroke-width:2px"/><polyline points="14 54 14.06 54 20 54" style="fill:none;stroke:#000;stroke-linejoin:round;stroke-width:2px"/><path d="M47,46.6l.02.02a12.547,12.547,0,0,1,1.06,1.18A8.509,8.509,0,0,1,50,53a7.792,7.792,0,0,1-.06,1A4.135,4.135,0,0,1,46,58H44" style="fill:none;stroke:#000;stroke-linejoin:round;stroke-width:2px"/><polyline points="50 54 49.94 54 44 54" style="fill:none;stroke:#000;stroke-linejoin:round;stroke-width:2px"/><path d="M24,40c-10,0-12-4-12-4,.36-1.08.98-2.56,1.64-4C14.78,29.45,16,27,16,27V20a5.883,5.883,0,0,1,.57-2.55,6,6,0,0,1,1.35-1.84A5.928,5.928,0,0,1,22,14H42a5.928,5.928,0,0,1,4.08,1.61,6,6,0,0,1,1.35,1.84A5.883,5.883,0,0,1,48,20v7s1.09,2.54,2.17,5c.72,1.62,1.43,3.21,1.83,4,0,0-2,4-12,4" style="fill:none;stroke:#000;stroke-linejoin:round;stroke-width:2px"/><path d="M30,35h4l-1.17,1.59a1.041,1.041,0,0,1-1.66,0Z" style="fill:none;stroke:#000;stroke-linejoin:round;stroke-width:2px"/><path d="M34,35c6.76-2.9,8.59-3,16.17-3H51" style="fill:none;stroke:#000;stroke-linejoin:round;stroke-width:2px"/><path d="M30,35c-6.82-2.92-8.62-3-16.36-3H13" style="fill:none;stroke:#000;stroke-linejoin:round;stroke-width:2px"/><path d="M44,48H20a4.023,4.023,0,0,1-4-4,3.995,3.995,0,0,1,4-4H44a4,4,0,0,1,4,4,4.348,4.348,0,0,1-.98,2.62c-.06.07-.12.14-.19.21A4.025,4.025,0,0,1,44,48" style="fill:none;stroke:#000;stroke-linejoin:round;stroke-width:2px"/><polyline points="35 48 35 56 38 56 41 56 41 48" style="fill:none;stroke:#000;stroke-linejoin:round;stroke-width:2px"/><line style="fill:none;stroke:#000;stroke-linejoin:round;stroke-width:2px" x1="35" x2="35" y1="56" y2="59"/><line style="fill:none;stroke:#000;stroke-linejoin:round;stroke-width:2px" x1="41" x2="41" y1="56" y2="59"/><line style="fill:none;stroke:#000;stroke-linejoin:round;stroke-width:2px" x1="38" x2="38" y1="56" y2="59"/><path d="M36,14,45,1s4,7,4,11a9.346,9.346,0,0,1-1.57,5.45A4.058,4.058,0,0,1,47,18" style="fill:none;stroke:#000;stroke-linejoin:round;stroke-width:2px"/><path d="M40,14l5-7s1.87,4.69,1.08,8.61c-.02.13-.05.26-.08.39" style="fill:none;stroke:#000;stroke-linejoin:round;stroke-width:2px"/><path d="M28,14,19,1s-4,7-4,11a9.346,9.346,0,0,0,1.57,5.45A4.058,4.058,0,0,0,17,18" style="fill:none;stroke:#000;stroke-linejoin:round;stroke-width:2px"/><path d="M24,14,19,7s-1.87,4.69-1.08,8.61c.02.13.05.26.08.39" style="fill:none;stroke:#000;stroke-linejoin:round;stroke-width:2px"/><path d="M50,43c.15.2.29.39.43.58,2.67,3.63,4.25,6.31,9.26,6.41.1.01.21.01.31.01" style="fill:none;stroke:#000;stroke-linejoin:round;stroke-width:2px"/><path d="M48,48s.03-.07.08-.2a20.109,20.109,0,0,1,2.35-4.22C51.79,41.73,53.68,40,56,40c3.32,0,6,1.34,6,3,0,0-2,2-2,4a14.112,14.112,0,0,1-.31,2.99A14.741,14.741,0,0,1,46.02,61.74l-4.68.24L41,62" style="fill:none;stroke:#000;stroke-linejoin:round;stroke-width:2px"/></g></svg>